<svg width="42" height="38" viewBox="0 0 42 38" fill="none" xmlns="http://www.w3.org/2000/svg">
<path d="M34.825 37.2083C34.5502 37.2083 34.279 37.1291 34.0515 36.9803L21 28.386L7.94849 36.9835C7.54949 37.2431 7.02099 37.2843 6.57999 37.0785C6.14249 36.8774 5.86249 36.4689 5.86249 36.0224V8.86664C5.86249 6.9033 7.62999 5.30414 9.79999 5.30414H32.1965C34.3665 5.30414 36.134 6.9033 36.134 8.86664V36.0208C36.134 36.4673 35.8575 36.8758 35.4165 37.0785C35.231 37.1656 35.0262 37.2083 34.8215 37.2083H34.825ZM21 25.7291C21.2712 25.7291 21.5425 25.8051 21.77 25.9571L33.5125 33.6886V8.86664C33.5125 8.2143 32.9227 7.67914 32.2 7.67914H9.79999C9.07724 7.67914 8.48749 8.2143 8.48749 8.86664V33.6886L20.23 25.9571C20.4575 25.8051 20.7287 25.7291 21 25.7291Z" fill="black"/>
</svg>
