<svg width="56" height="57" viewBox="0 0 56 57" fill="none" xmlns="http://www.w3.org/2000/svg">
<path d="M52.6866 17.4562L29.1083 4.50534C28.4153 4.12534 27.5823 4.12534 26.8916 4.50534L3.32498 17.4562C2.19098 18.0832 1.76865 19.5225 2.37998 20.6767C2.79998 21.4723 3.60498 21.9236 4.43332 21.9236C4.80665 21.9236 5.18932 21.8333 5.54165 21.6386L7.25431 20.6981L10.9643 47.4168C11.4683 50.3001 14.021 52.3141 17.171 52.3141H38.829C41.979 52.3141 44.5316 50.3001 45.0403 47.3551L48.7457 20.6957L50.4653 21.641C51.597 22.2656 53.0133 21.8357 53.6246 20.6815C54.2383 19.5272 53.8113 18.0856 52.682 17.4633L52.6866 17.4562ZM28 36.6581C23.8116 36.6581 20.4166 33.2025 20.4166 28.9393C20.4166 24.6762 23.8116 21.2206 28 21.2206C32.1883 21.2206 35.5833 24.6762 35.5833 28.9393C35.5833 33.2025 32.1883 36.6581 28 36.6581Z" fill="#1DA1F2"/>
</svg>
