<svg width="41" height="42" viewBox="0 0 41 42" fill="none" xmlns="http://www.w3.org/2000/svg">
<path d="M28.1875 17.9375C26.539 17.9375 25.1979 19.3147 25.1979 21C25.1979 22.6852 26.5373 24.0625 28.1875 24.0625C29.8344 24.0625 31.1771 22.687 31.1771 21C31.1771 19.313 29.8344 17.9375 28.1875 17.9375ZM28.1875 22.3125C27.4803 22.3125 26.9063 21.7245 26.9063 21C26.9063 20.2773 27.482 19.6875 28.1875 19.6875C28.8931 19.6875 29.4688 20.2755 29.4688 21C29.4688 21.7227 28.8948 22.3125 28.1875 22.3125ZM20.5 17.9375C18.8498 17.9375 17.5104 19.3147 17.5104 21C17.5104 22.6852 18.8515 24.0625 20.5 24.0625C22.1486 24.0625 23.4896 22.687 23.4896 21C23.4896 19.313 22.1503 17.9375 20.5 17.9375ZM20.5 22.3125C19.7928 22.3125 19.2188 21.7245 19.2188 21C19.2188 20.2773 19.7945 19.6875 20.5 19.6875C21.2056 19.6875 21.7813 20.2755 21.7813 21C21.7813 21.7227 21.2073 22.3125 20.5 22.3125ZM12.8125 17.9375C11.164 17.9375 9.82294 19.3147 9.82294 21C9.82294 22.6852 11.164 24.0625 12.8125 24.0625C14.4594 24.0625 15.8021 22.687 15.8021 21C15.8021 19.313 14.4576 17.9375 12.8125 17.9375ZM12.8125 22.3125C12.1053 22.3125 11.5313 21.7245 11.5313 21C11.5313 20.2773 12.107 19.6875 12.8125 19.6875C13.5181 19.6875 14.0938 20.2755 14.0938 21C14.0938 21.7227 13.5198 22.3125 12.8125 22.3125Z" fill="black"/>
<path d="M20.5 39.8125C10.373 39.8125 2.13544 31.374 2.13544 21C2.13544 10.626 10.373 2.1875 20.5 2.1875C30.627 2.1875 38.8646 10.626 38.8646 21C38.8646 31.374 30.627 39.8125 20.5 39.8125ZM20.5 4.8125C11.7875 4.8125 4.69794 12.075 4.69794 21C4.69794 29.925 11.7875 37.1875 20.5 37.1875C29.2125 37.1875 36.3021 29.925 36.3021 21C36.3021 12.075 29.2125 4.8125 20.5 4.8125Z" fill="black"/>
</svg>
