<svg width="149" height="24" viewBox="0 0 149 24" fill="none" xmlns="http://www.w3.org/2000/svg">
<path d="M0.864 19.64L2.88 19.096V6.84C2.88 6.28533 2.83733 5.92267 2.752 5.752C2.688 5.56 2.48533 5.38933 2.144 5.24L0.8 4.472L0.896 1.432H10.88L11.04 4.696L8.672 5.336V19.16L12.704 19.064L15.424 15.96L17.888 16.088C17.8453 17.88 17.696 20.184 17.44 23H1.024L0.864 19.64ZM19.3558 20.152L20.3478 19.544L27.8358 1.4L33.2758 0.919998L39.6758 18.2C39.8891 18.7547 40.0384 19.1173 40.1238 19.288C40.2091 19.4587 40.3691 19.6933 40.6038 19.992L41.1798 20.728L40.9878 23H31.9958L31.6758 19.96L33.9478 19.384L32.9238 16.152L26.4278 16.248L25.7238 18.264C25.6598 18.456 25.6278 18.616 25.6278 18.744C25.6278 18.8933 25.6491 19.0107 25.6918 19.096C25.7558 19.16 25.8518 19.2133 25.9798 19.256L28.1878 20.184L27.8678 23H19.4838L19.3558 20.152ZM29.8198 6.392L27.7078 12.536L31.8358 12.728L29.8198 6.392ZM48.185 9.368L48.729 17.752C48.7503 18.2427 48.8037 18.5627 48.889 18.712C48.9743 18.8613 49.1663 19.0213 49.465 19.192L51.129 20.312L51.001 23H42.681L42.521 19.512L44.249 19.096L44.377 6.488C44.377 6.08267 44.345 5.80533 44.281 5.656C44.217 5.50667 44.0677 5.336 43.833 5.144L42.649 4.248L42.873 1.432H49.497L59.161 13.816L58.713 6.68C58.6917 6.168 58.6383 5.83733 58.553 5.688C58.4677 5.53867 58.2757 5.37867 57.977 5.208L56.313 4.12L56.409 1.432H64.665L64.793 4.696L63.161 5.4L63.033 22.712L59.353 23.928L48.185 9.368ZM72.962 23.096C70.658 23.096 68.5353 23 66.594 22.808L66.434 19.736L68.77 19.096V6.904C68.77 6.34933 68.7273 5.98667 68.642 5.816C68.5567 5.624 68.3327 5.45333 67.97 5.304L66.306 4.376L66.498 1.72C68.7167 1.54933 70.5833 1.42133 72.098 1.336C73.6127 1.22933 74.8287 1.176 75.746 1.176C78.69 1.176 81.0473 1.51733 82.818 2.2C84.61 2.88267 85.9113 3.96 86.722 5.432C87.554 6.904 87.97 8.856 87.97 11.288C87.97 14.36 87.266 16.8453 85.858 18.744C84.5993 20.3867 82.9247 21.528 80.834 22.168C78.7647 22.7867 76.1407 23.096 72.962 23.096ZM76.994 18.52C78.786 18.52 80.2047 18.3067 81.25 17.88C81.442 17.3467 81.6127 16.5147 81.762 15.384C81.9327 14.2533 82.018 13.1973 82.018 12.216C82.018 9.80533 81.5167 8.024 80.514 6.872C79.5327 5.72 78.0287 5.144 76.002 5.144C75.7247 5.144 75.4687 5.15467 75.234 5.176C74.9993 5.19733 74.7753 5.21867 74.562 5.24V18.36C75.4153 18.4667 76.226 18.52 76.994 18.52ZM96.9695 23.384C94.6228 23.384 92.2442 23.0213 89.8335 22.296C89.9402 20.184 90.1108 18.2213 90.3455 16.408L92.8095 15.928L94.4095 18.648C95.6895 19.096 96.8202 19.32 97.8015 19.32C98.1428 19.32 98.8682 19.224 99.9775 19.032C100.02 18.6053 100.042 18.3173 100.042 18.168C100.042 17.656 99.9562 17.272 99.7855 17.016C99.6148 16.7387 99.2415 16.44 98.6655 16.12C98.0895 15.7787 97.0548 15.2773 95.5615 14.616C93.7268 13.72 92.4042 12.76 91.5935 11.736C90.7828 10.6907 90.3775 9.464 90.3775 8.056C90.3775 5.85867 91.1242 4.14133 92.6175 2.904C94.1108 1.66667 96.1588 1.048 98.7615 1.048C100.02 1.048 101.268 1.176 102.506 1.432C103.764 1.66667 104.863 1.99733 105.802 2.424C105.759 3.61867 105.663 5.10133 105.514 6.872L105.418 8.248L103.082 8.6L100.65 5.496C99.8815 5.26133 98.9215 5.144 97.7695 5.144C97.0442 5.144 96.5002 5.208 96.1375 5.336C96.0308 5.76267 95.9775 6.09333 95.9775 6.328C95.9775 6.79733 96.0948 7.21333 96.3295 7.576C96.5642 7.91733 96.9802 8.28 97.5775 8.664C98.1748 9.02667 99.0602 9.48533 100.234 10.04C101.94 10.8507 103.231 11.5653 104.106 12.184C104.98 12.8027 105.588 13.4533 105.93 14.136C106.292 14.7973 106.474 15.608 106.474 16.568C106.474 18.68 105.631 20.344 103.946 21.56C102.26 22.776 99.9348 23.384 96.9695 23.384ZM119.172 23.448C115.63 23.448 112.985 22.552 111.236 20.76C109.508 18.968 108.644 16.248 108.644 12.6C108.644 10.232 109.081 8.184 109.956 6.456C110.83 4.70667 112.078 3.36267 113.7 2.424C115.321 1.48533 117.252 1.016 119.492 1.016C126.617 1.016 130.18 4.65333 130.18 11.928C130.18 14.3173 129.742 16.376 128.868 18.104C127.993 19.832 126.724 21.1547 125.06 22.072C123.417 22.9893 121.454 23.448 119.172 23.448ZM119.844 19.032C121.06 19.032 122.222 18.7227 123.332 18.104C123.566 17.4427 123.748 16.6213 123.876 15.64C124.004 14.6373 124.068 13.656 124.068 12.696C124.068 10.328 123.62 8.536 122.724 7.32C121.849 6.104 120.558 5.496 118.852 5.496C117.636 5.496 116.462 5.72 115.332 6.168C115.097 6.57333 114.916 7.24533 114.788 8.184C114.66 9.10133 114.596 10.1573 114.596 11.352C114.596 13.8267 115.044 15.7253 115.94 17.048C116.836 18.3707 118.137 19.032 119.844 19.032ZM131.645 19.64L133.661 19.096V6.84C133.661 6.28533 133.619 5.92267 133.533 5.752C133.469 5.56 133.267 5.38933 132.925 5.24L131.581 4.472L131.677 1.432H141.661L141.821 4.696L139.453 5.336V19.16L143.485 19.064L146.205 15.96L148.669 16.088C148.627 17.88 148.477 20.184 148.221 23H131.805L131.645 19.64Z" fill="black"/>
</svg>
