<svg width="44" height="37" viewBox="0 0 44 37" fill="none" xmlns="http://www.w3.org/2000/svg">
<path d="M35.2917 4.65277H8.70835C5.92719 4.65277 3.66669 6.55519 3.66669 8.89544V28.1586C3.66669 30.4988 5.92719 32.4028 8.70835 32.4028H35.2917C38.0729 32.4028 40.3334 30.4988 40.3334 28.1586V8.89544C40.3334 6.55519 38.0729 4.65277 35.2917 4.65277ZM8.70835 6.96527H35.2917C36.5567 6.96527 37.5834 7.8286 37.5834 8.89235V9.9931L22.825 18.2672C22.3245 18.5447 21.6774 18.5478 21.175 18.2641L6.41669 9.9931V8.89235C6.41669 7.8286 7.44335 6.96527 8.70835 6.96527ZM35.2917 30.0872H8.70835C7.44335 30.0872 6.41669 29.2239 6.41669 28.1601V12.7034L19.69 20.1496C20.3922 20.5443 21.197 20.7416 22 20.7416C22.8067 20.7416 23.6079 20.5443 24.31 20.1511L37.5834 12.7049V28.1555C37.5834 29.2192 36.5567 30.0826 35.2917 30.0826V30.0872Z" fill="black"/>
</svg>
