<svg width="47" height="39" viewBox="0 0 47 39" fill="none" xmlns="http://www.w3.org/2000/svg">
<path d="M42.49 26.7605C42.4508 26.7345 38.2991 24.0955 38.3716 16.9617C38.4108 12.8472 36.7814 9.19098 33.7754 6.66736C31.0827 4.40373 27.4363 3.15248 23.5098 3.13623H23.4843C19.5598 3.15248 15.9134 4.40373 13.2187 6.66898C10.2147 9.19261 8.58142 12.8472 8.6245 16.9617C8.69696 23.998 4.66867 26.6581 4.50808 26.7605C3.99892 27.0741 3.79133 27.6217 3.98912 28.1222C4.18887 28.6227 4.75287 28.9591 5.38346 28.9591H15.0185C15.2182 32.7129 18.9292 35.7191 23.498 35.7191C28.0668 35.7191 31.774 32.7129 31.9718 28.9591H41.6107C42.2412 28.9591 42.8053 28.6244 43.0011 28.1239C43.2028 27.625 42.9952 27.0757 42.486 26.7621L42.49 26.7605ZM23.5 33.2767C20.5527 33.2767 18.1537 31.3641 17.9618 28.9575H29.0382C28.8423 31.3625 26.4473 33.28 23.5 33.28V33.2767ZM8.5775 26.52C10.0267 24.6805 11.609 21.5995 11.562 16.939C11.5267 13.429 12.8232 10.4682 15.3083 8.38011C17.4487 6.58123 20.3608 5.58511 23.5 5.57373C26.6392 5.58673 29.5454 6.58123 31.6858 8.38173C34.1729 10.4699 35.4713 13.429 35.436 16.9406C35.389 21.6011 36.9733 24.6837 38.4225 26.5216H8.5775V26.52Z" fill="black"/>
</svg>
